<svg t="1560174808147" class="icon" style="" viewBox="0 0 1024 1024" version="1.1" xmlns="http://www.w3.org/2000/svg" p-id="1325" xmlns:xlink="http://www.w3.org/1999/xlink" width="256" height="256"><defs><style type="text/css"></style></defs><path d="M1013.43301311 437.58924973h-44.18690634V130.93211974a20.14922928 20.14922928 0 0 0-20.14922928-19.97248166h-512.56811351a20.14922928 20.14922928 0 0 0-20.14922929 19.97248166v167.55674884a297.81974871 297.81974871 0 0 0-123.72333775-27.21913431 300.47096309 300.47096309 0 1 0 156.42164843 557.28526273v64.51288326a20.14922928 20.14922928 0 0 0 40.12171095 0v-88.37381269h407.75677169v88.37381269a20.14922928 20.14922928 0 0 0 40.12171096 0v-88.37381269h76.35497414a19.97248167 19.97248167 0 0 0 19.97248167-20.50272453V457.56173139a19.97248167 19.97248167 0 0 0-19.97248167-19.97248166zM455.79425514 151.08134902H929.12439583v286.50790071h-88.37381268v-88.37381268a19.97248167 19.97248167 0 0 0-20.14922928-19.97248167H565.02428761a19.97248167 19.97248167 0 0 0-20.1492293 19.97248167v60.27094025a302.06169173 302.06169173 0 0 0-88.37381268-88.37381268zM800.80561983 368.83442347v68.75482626H584.11303115V368.83442347zM467.10610316 764.04211374c-5.83267163 5.47917638-11.84209089 10.4281099-17.67476254 15.37704341a19.26549116 19.26549116 0 0 0-0.88373813 4.59543826h-5.30242875a260.7027474 260.7027474 0 1 1-26.86563905-441.86906337q10.4281099 5.83267163 20.14922929 12.19558615a233.83710834 233.83710834 0 0 1 19.97248165 14.84680052 265.12143803 265.12143803 0 0 1 58.50346401 67.51759288c3.88844775 6.36291451 7.60014789 13.07932428 10.95835277 19.97248168s6.1861669 13.2560719 8.83738127 19.97248166 3.71170014 9.54437177 5.30242875 14.49330528 3.18145726 11.31184801 4.59543826 17.67476253v2.82796202c1.59072863 6.53966213 2.82796201 13.2560719 3.88844776 19.97248166a275.01930506 275.01930506 0 0 1 3.35820487 40.12171096 255.04682338 255.04682338 0 0 1-7.95364314 63.98264037 258.40502826 258.40502826 0 0 1-76.88521702 128.31877599z m526.17768067 0H522.78160515a300.47096309 300.47096309 0 0 0 22.09345316-30.57733918 282.79620057 282.79620057 0 0 0 19.26549117-35.34952507 289.68935794 289.68935794 0 0 0 19.97248167-58.14996874 297.64300108 297.64300108 0 0 0 8.13039075-68.04783576 301.8849441 301.8849441 0 0 0-3.00470961-40.12171095c0-6.71640976-1.76747625-13.43281952-3.00470964-19.97248167l-2.1209715-7.77689552c0-4.06519538-1.94422388-8.13039075-3.00470965-12.19558613s-2.82796201-9.72111939-4.41869062-14.49330529h416.59415295z" p-id="1326"></path><path d="M404.89093904 658.17028618l-28.63311531-28.63311531-14.13981002-14.13981004-14.13981003-14.13981004-28.63311531-28.6331153 85.36910304-85.36910304a19.97248167 19.97248167 0 1 0-28.45636768-28.27962006l-85.19235543 85.36910306L206.40335578 458.97571239a19.97248167 19.97248167 0 0 0-28.45636769 28.27962006l84.66211254 84.66211254-84.83886016 84.83886017a19.97248167 19.97248167 0 1 0 28.45636768 28.27962006L291.0654683 600.37381268l28.4563677 28.45636767 14.31655765 14.31655766 14.13981003 14.13981002 28.45636768 28.45636769a19.97248167 19.97248167 0 0 0 28.45636768-28.27962006z" p-id="1327"></path></svg>