<svg t="1560173896064" class="icon" style="" viewBox="0 0 1024 1024" version="1.1" xmlns="http://www.w3.org/2000/svg" p-id="3906" xmlns:xlink="http://www.w3.org/1999/xlink" width="64" height="64"><defs><style type="text/css"></style></defs><path d="M993.35354141 715.48343979H472.60033365c-12.27164558 0-22.12156189 15.95081045-22.12156074 28.23409891s7.35832974 31.91326379 19.6416182 31.91326265H965.70158877v79.77733803H335.14393486c-12.27164558 0-24.54329117 18.40746837-24.54329003 30.67911281s12.27164558 30.07368078 24.54329003 30.07368192h658.20960655c12.27164558 0 28.23409891-15.95081045 28.23409891-28.23409891v-138.08511773c0-12.27164558-15.95081045-34.36992171-28.23409891-34.36992056z m-758.49013931 12.27164558a22.00513195 22.00513195 0 0 0-22.12156075 22.12156188v131.90272228c0 12.27164558 11.04913749 22.70370816 23.28585444 22.70370816s24.54329117-12.27164558 24.54329002-24.54329116v-104.32062806h110.52630813c12.27164558 0 24.54329117-12.27164558 24.54329116-24.54329002s-10.4786341-23.28585443-22.70370816-23.28585444H234.8634021zM119.49363655 751.68130048v128.8755621c0 12.27164558 14.11122745 23.93785799 26.38287303 23.93785799s28.83953095-11.64292779 28.83953095-23.93785799V751.68130048c0-12.27164558-16.56788537-23.28585443-28.83953095-23.28585443-12.2600027-0.64036067-26.38287303 10.40877682-26.38287303 23.28585443z m-88.3698176-23.28585443c-12.27164558 0-28.23409891 9.81498766-28.23409892 22.12156188v131.87943652c0 12.27164558 15.95081045 22.12156189 28.23409892 22.12156188s26.99994795-11.64292779 26.99994795-23.93785799V751.68130048c0.01164288-12.87707762-15.33373554-23.92621511-26.98830507-23.30914019zM202.34470627 657.14073145c0-12.27164558-9.20955563-28.23409891-21.48120006-28.23409892-42.96240128 0-73.64151523-30.67911282-73.64151524-73.64151523s30.67911282-73.64151523 73.64151524-73.6415141c22.70370816 0 44.18490937 7.35832974 58.91321173 24.54329003a31.20304469 31.20304469 0 0 0 7.97540465 5.51874787c38.66616149 29.45660587 86.53023573 49.70365611 135.61681693 49.70365611 122.72809643 0 227.0370816-104.32062805 227.0370816-227.0370816 0-122.12266439-105.55477902-227.0370816-228.28287431-227.0370816-12.27164558 0-22.12156189 15.95081045-22.12156188 28.23409892s11.04913749 26.99994795 22.70370816 26.99994794c98.18480526 0 171.8263205 73.64151523 171.82632049 171.8263205s-72.96622478 171.84960626-171.16267406 171.84960626c-43.56783331 0-85.91315968-14.11122745-118.4318555-42.96240128-0.61707491-0.61707491-1.22250695-0.61707491-1.83958301-1.22250696-22.70370816-20.86412515-51.54323911-35.59242866-82.2339948-35.59242865-67.52897821 0-128.8755621 61.36986965-128.8755621 128.87556209s61.36986965 128.8755621 128.8755621 128.87556096c12.27164558 0 21.48120121-14.7283035 21.48120006-26.99994794z" p-id="3907"></path></svg>