<svg t="1560176750107" class="icon" style="" viewBox="0 0 1024 1024" version="1.1" xmlns="http://www.w3.org/2000/svg" p-id="4810" xmlns:xlink="http://www.w3.org/1999/xlink" width="64" height="64"><defs><style type="text/css"></style></defs><path d="M968.158 499.678l-0.037-0.036-4.08 4.736L514.92 72.542H104.614c0-30.889 25.046-55.95 55.952-55.95v-0.147h354.21v0.184c0.055 0 0.107-0.036 0.146-0.036 15.501 0 29.506 6.302 39.65 16.5l314.032 300.373c0.091-0.182 0.202-0.364 0.312-0.508l95.728 91.54c10.198 10.16 16.539 24.186 16.539 39.703-0.002 13.547-5.012 25.788-13.025 35.477z m-509.331-371.33v0.181c0.052 0 0.108-0.034 0.144-0.034 15.498 0 29.505 6.299 39.65 16.464l428.43 409.834c7.792 7.61 13.368 17.484 15.663 28.555 0 0.038 0.02 0.038 0.02 0.072 0.307 1.57 0.527 3.133 0.727 4.737 0.038 0.292 0.09 0.584 0.128 0.875 0.165 1.566 0.218 3.168 0.255 4.807 0 0.292 0.038 0.62 0.038 0.91 0 13.844-5.028 26.448-13.35 36.208l0.033 0.039-317.056 373.006-0.036-0.035c-10.254 12.057-25.516 19.742-42.602 19.742-1.821 0-3.623-0.109-5.407-0.254-1.256-0.147-2.514-0.364-3.753-0.548-0.437-0.072-0.858-0.108-1.277-0.218a55.532 55.532 0 0 1-26.443-12.931l-0.093 0.108L67.642 580.91l0.199-0.255c-11.436-10.055-18.795-24.589-19.068-40.945h-0.256V184.444h0.147c0-30.888 25.042-55.949 55.95-55.949v-0.147h354.213z m-260.96 223.95c41.199 0 74.6-33.403 74.6-74.602 0-41.198-33.401-74.602-74.6-74.602-41.198 0-74.602 33.404-74.602 74.602 0 41.199 33.404 74.601 74.601 74.601z" fill="" p-id="4811"></path></svg>