<svg t="1560347574566" class="icon" style="" viewBox="0 0 1024 1024" version="1.1" xmlns="http://www.w3.org/2000/svg" p-id="5117" xmlns:xlink="http://www.w3.org/1999/xlink" width="128" height="128"><defs><style type="text/css"></style></defs><path d="M901.28 925.28H122.72c-8.8 0-16-7.2-16-16v-768c0-8.8 7.2-16 16-16h778.72c8.8 0 16 7.2 16 16v768c-0.16 8.96-7.2 16-16.16 16z m-762.56-32h746.72v-736H138.72v736z" fill="#F97151" p-id="5118"></path><path d="M478.72 854.72H192c-8.8 0-16-7.2-16-16v-614.4c0-8.8 7.2-16 16-16h286.72c27.2 0 49.28 25.92 49.28 57.92V796.8c0 31.84-22.08 57.92-49.28 57.92z m-270.72-32h270.72c9.28 0 17.28-12.16 17.28-25.92V266.24c0-13.76-8.16-25.92-17.28-25.92H208v582.4z" fill="#F97151" p-id="5119"></path><path d="M832 854.72H544c-26.4 0-48-25.12-48-56.16V264.48c0-31.04 21.44-56.16 48-56.16h288c8.8 0 16 7.2 16 16v614.4c0 8.8-7.2 16-16 16z m-288-614.4c-7.52 0-16 9.92-16 24.16v534.08c0 14.24 8.48 24.16 16 24.16h272v-582.4H544zM368 296h-116c-8.8 0-16-7.2-16-16s7.2-16 16-16H368c8.8 0 16 7.2 16 16s-7.2 16-16 16z" fill="#F97151" p-id="5120"></path><path d="M688 296h-116c-8.8 0-16-7.2-16-16s7.2-16 16-16H688c8.8 0 16 7.2 16 16s-7.2 16-16 16zM60 854.72c-4.8 0-9.6-2.08-12.64-6.24a16 16 0 0 1 2.88-22.4L958.24 128.64a16 16 0 0 1 22.4 2.88 16 16 0 0 1-2.88 22.4L69.76 851.36c-2.88 2.24-6.4 3.36-9.76 3.36z" fill="#F97151" p-id="5121"></path></svg>