<svg t="1560173889922" class="icon" style="" viewBox="0 0 1024 1024" version="1.1" xmlns="http://www.w3.org/2000/svg" p-id="3690" xmlns:xlink="http://www.w3.org/1999/xlink" width="64" height="64"><defs><style type="text/css"></style></defs><path d="M991.104 605.248h-344.512c-12.288 0-22.08 15.872-22.08 28.096 0 12.16 7.36 31.744 19.648 31.744h319.36v79.36H508.928c-12.288 0-24.512 18.304-24.512 30.528s12.224 29.952 24.512 29.952h482.112c12.288 0 28.288-15.872 28.288-28.16V639.36c0-12.16-16-34.176-28.288-34.176z m-759.04 12.16a22.08 22.08 0 0 0-22.016 21.952v131.328c0 12.224 11.008 22.592 23.296 22.592s24.576-12.16 24.576-24.384v-103.808h110.528c12.288 0 24.576-12.224 24.576-24.448a23.552 23.552 0 0 0-22.72-23.232h-138.24z m-115.392 23.808v128.256c0 12.224 14.08 23.808 26.432 23.808 12.288 0 28.8-11.584 28.8-23.808V641.28c0-12.16-16.512-23.168-28.8-23.168-12.288-0.64-26.432 10.368-26.432 23.168zM28.288 618.048C16 618.048 0 627.776 0 640v131.328c0 12.16 16 21.952 28.288 21.952s27.008-11.584 27.008-23.808V641.28c0-12.8-15.36-23.808-27.008-23.168zM199.552 547.2c0-12.16-9.152-28.096-21.44-28.096-43.008 0-73.728-30.528-73.728-73.28s30.72-73.28 73.728-73.28c22.72 0 44.16 7.36 58.88 24.448a31.232 31.232 0 0 0 8 5.44c38.72 29.312 86.592 49.472 135.68 49.472 122.88 0 227.264-103.808 227.264-225.92C608 104.448 502.4 0 379.52 0c-12.224 0-22.08 15.872-22.08 28.096s11.072 26.88 22.72 26.88c98.24 0 171.904 73.28 171.904 170.88 0 97.728-73.088 171.2-171.328 171.2-43.52 0-85.952-14.08-118.528-42.752-0.64-0.64-1.152-0.64-1.856-1.216-22.72-20.736-51.584-35.392-82.24-35.392-67.584 0-128.96 61.056-128.96 128.256s61.44 128.192 128.96 128.192c12.288 0 21.44-14.656 21.44-26.88z m813.632-401.152c-8.576-8.576-28.224-8.576-36.8 0L133.376 980.416c-8.576 8.576-2.432 28.16 6.144 36.672 4.288 4.224 16 6.08 21.504 6.08a21.376 21.376 0 0 0 15.296-6.08L1019.328 182.656c7.936-8.576 1.792-28.096-6.144-36.608z" p-id="3691"></path></svg>