<svg t="1560173014775" class="icon" style="" viewBox="0 0 1280 1024" version="1.1" xmlns="http://www.w3.org/2000/svg" p-id="2349" xmlns:xlink="http://www.w3.org/1999/xlink" width="80" height="64"><defs><style type="text/css"></style></defs><path d="M1212.48 29.952H798.72a45.28 45.28 0 0 0-45.12 45.472v314.336c0.256 25.024-19.84 45.472-44.832 45.696h-310.24a45.28 45.28 0 0 0-45.056 45.504v314.336a45.28 45.28 0 0 1-45.12 45.472H67.584A45.504 45.504 0 0 0 22.4 886.464v86.08a45.28 45.28 0 0 0 45.12 45.44h415.808a45.088 45.088 0 0 0 44.864-45.44v-314.368a45.28 45.28 0 0 1 45.088-45.696h310.208c24.864-0.32 44.8-20.64 44.672-45.472V252.672a45.088 45.088 0 0 1 44.864-45.504h239.424a45.504 45.504 0 0 0 45.056-45.696V75.424A45.28 45.28 0 0 0 1212.48 29.952z"  p-id="2350"></path></svg>