<svg t="1560173629471" class="icon" style="" viewBox="0 0 1024 1024" version="1.1" xmlns="http://www.w3.org/2000/svg" p-id="2867" xmlns:xlink="http://www.w3.org/1999/xlink" width="64" height="64"><defs><style type="text/css"></style></defs><path d="M938.656 554.656h-64v-320a64 64 0 0 0-64-64H213.344a64 64 0 0 0-64 64v320h-64V213.344A106.656 106.656 0 0 1 192 106.656h640a106.656 106.656 0 0 1 106.656 106.688v341.312z" p-id="2868"></path><path d="M810.656 456l-64-16V384a21.344 21.344 0 0 0-21.312-21.344H298.656a21.344 21.344 0 0 0-21.312 21.344v56.608l-64 15.552v-114.816c0-23.584 19.104-42.688 42.656-42.688h512c23.552 0 42.656 19.104 42.656 42.688v114.656z" p-id="2869"></path><path d="M128 640v106.656h768V640v-0.192C896 522.08 735.872 512 512 512s-384 10.08-384 127.808V640z m-64-21.344C64 477.28 252.8 448 512 448s448 29.28 448 170.656v192H64v-192z" p-id="2870"></path><path d="M96 704a32 32 0 0 1 32 32v170.656a32 32 0 1 1-64 0V736a32 32 0 0 1 32-32zM928 704a32 32 0 0 1 32 32v170.656a32 32 0 1 1-64 0V736a32 32 0 0 1 32-32z" p-id="2871"></path></svg>